HIERARCHY
ROOT Hips
{
	OFFSET 0.00 0.00 0.00
	CHANNELS 6 Xposition Yposition Zposition Xrotation Yrotation Zrotation
	JOINT Spine
	{
		OFFSET 0.00000 7.06766 0.00000
		CHANNELS 3 Xrotation Yrotation Zrotation
		JOINT Head
		{
			OFFSET 0.00000 15.03989 0.00000
			CHANNELS 3 Xrotation Yrotation Zrotation
			End Site
			{
				OFFSET 0.00000 4.52755 0.00000
			}
		}
		JOINT LeftShoulder
		{
			OFFSET 0.00000 10.53037 0.00000
			CHANNELS 3 Xrotation Yrotation Zrotation
			JOINT LeftArm
			{
				OFFSET 7.02886 0.00000 0.00000
				CHANNELS 3 Xrotation Yrotation Zrotation
				JOINT LeftForeArm
				{
					OFFSET 10.79770 0.00000 0.00000
					CHANNELS 3 Yrotation Zrotation Xrotation
					JOINT LeftHand
					{
						OFFSET 7.90744 0.00000 0.00000
						CHANNELS 3 Xrotation Yrotation Zrotation
						JOINT LeftHandThumb1
						{
							OFFSET 0.00000 0.00000 0.00000
							CHANNELS 3 Xrotation Zrotation Yrotation
							End Site
							{
								OFFSET 0.00000 0.00000 3.93700
							}
						}
						End Site
						{
							OFFSET 3.93700 0.00000 0.00000
						}
					}
				}
			}
		}
		JOINT RightShoulder
		{
			OFFSET 0.00000 10.53037 0.00000
			CHANNELS 3 Xrotation Yrotation Zrotation
			JOINT RightArm
			{
				OFFSET -7.02886 0.00000 0.00000
				CHANNELS 3 Xrotation Yrotation Zrotation
				JOINT RightForeArm
				{
					OFFSET -10.79770 0.00000 0.00000
					CHANNELS 3 Yrotation Zrotation Xrotation
					JOINT RightHand
					{
						OFFSET -7.90744 0.00000 0.00000
						CHANNELS 3 Xrotation Yrotation Zrotation
						JOINT RightHandThumb1
						{
							OFFSET 0.00000 0.00000 0.00000
							CHANNELS 3 Xrotation Zrotation Yrotation
							End Site
							{
								OFFSET 0.00000 0.00000 3.93700
							}
						}
						End Site
						{
							OFFSET -3.93700 0.00000 0.00000
						}
					}
				}
			}
		}
	}
	JOINT LeftUpLeg
	{
		OFFSET 4.01300 0.00000 0.00000
		CHANNELS 3 Xrotation Yrotation Zrotation
		JOINT LeftLeg
		{
			OFFSET 0.00000 -16.89976 0.00000
			CHANNELS 3 Xrotation Yrotation Zrotation
			JOINT LeftFoot
			{
				OFFSET 0.00000 -17.38918 0.00000
				CHANNELS 3 Xrotation Yrotation Zrotation
				JOINT LeftToeBase
				{
					OFFSET 0.00000 -1.27456 4.75673
					CHANNELS 3 Xrotation Yrotation Zrotation
					End Site
					{
						OFFSET 0.00000 0.00000 2.95275
					}
				}
			}
		}
	}
	JOINT RightUpLeg
	{
		OFFSET -4.01300 0.00000 0.00000
		CHANNELS 3 Xrotation Yrotation Zrotation
		JOINT RightLeg
		{
			OFFSET 0.00000 -16.89976 0.00000
			CHANNELS 3 Xrotation Yrotation Zrotation
			JOINT RightFoot
			{
				OFFSET 0.00000 -17.38918 0.00000
				CHANNELS 3 Xrotation Yrotation Zrotation
				JOINT RightToeBase
				{
					OFFSET 0.00000 -1.27456 4.75673
					CHANNELS 3 Xrotation Yrotation Zrotation
					End Site
					{
						OFFSET 0.00000 0.00000 2.95275
					}
				}
			}
		}
	}
}
MOTION
Frames: 18
Frame Time: 0.008333
 16.8602 37.0849 -22.5410 164.8970 22.9659 159.7380 -18.8366 16.8675 20.4184 3.7225 -1.6149 10.3764 -29.0826 4.3209 14.1521 -6.3566 13.5904 -9.1008 -4.5651 0.0000 -5.4434 -0.0359 4.3691 0.4714 33.1476 -0.0000 26.2537 7.8644 -8.9373 1.9849 -45.6913 -3.9762 24.5732 38.4183 0.0000 30.5356 -0.3378 -11.8780 -1.6409 32.8623 0.0000 -24.3270 -16.2952 20.3601 14.4066 -4.3557 0.0000 0.0000 -21.2963 29.9316 8.8365 20.6086 0.0000 0.0000 -38.3799 -16.0711 -33.0986 100.7929 -0.0000 0.0000 23.6157 -44.4946 -7.1675 21.5742 0.0000 0.0000
 16.8880 37.0882 -22.5553 164.5718 23.1831 159.8392 -19.1521 17.0484 20.2476 3.6758 -1.7072 10.5762 -29.1371 4.2136 14.3186 -6.2021 13.7819 -9.1077 -4.5899 0.0000 -5.4800 -0.0434 4.4011 0.5659 33.1476 -0.0000 26.2537 7.7500 -8.8953 2.0603 -45.6546 -4.0551 24.5876 38.1617 0.0000 30.5832 -0.3887 -12.0066 -1.8678 32.8623 0.0000 -24.3270 -16.5201 20.2651 14.4753 -4.4614 -0.0000 0.0000 -21.2801 30.0622 8.9254 20.4779 0.0000 0.0000 -37.0679 -15.9650 -32.5500 100.6661 -0.0000 -0.0000 23.6639 -44.4877 -7.2538 20.8783 -0.0000 0.0000
 16.9141 37.0899 -22.5686 164.2117 23.3445 159.9654 -19.4794 17.1575 20.0864 3.6744 -1.7564 10.6859 -29.0863 4.1657 14.4063 -6.1795 13.9384 -9.0438 -4.5993 0.0000 -5.5473 -0.0470 4.4434 0.6071 33.1476 -0.0000 26.2537 7.8379 -8.9453 2.1260 -45.8811 -4.1428 24.6423 38.0070 0.0000 31.0015 -0.2958 -11.8332 -1.4422 32.8623 0.0000 -24.3270 -16.7855 20.1757 14.5070 -4.5545 -0.0000 -0.0000 -21.2671 30.1872 9.0110 20.2428 0.0000 -0.0000 -35.8348 -15.9413 -32.0773 100.5043 -0.0000 0.0000 23.6386 -44.7474 -6.8787 20.7182 0.0000 -0.0000
 16.9443 37.0900 -22.5818 163.9086 23.5159 160.0596 -19.7309 17.2786 19.9445 3.6019 -1.7715 10.7710 -29.0463 4.1667 14.5051 -6.1594 14.0758 -8.9950 -4.5964 0.0000 -5.5497 -0.0415 4.4096 0.5403 33.1476 -0.0000 26.2537 7.8672 -8.9826 2.2034 -45.7492 -4.0226 24.6370 37.8180 0.0000 30.5954 -0.3458 -11.8784 -1.6797 32.8623 0.0000 -24.3270 -17.0127 20.1111 14.5618 -4.6473 -0.0000 0.0000 -21.3140 30.3447 9.0553 20.3399 -0.0000 0.0000 -34.5787 -15.9331 -31.5661 100.3702 -0.0000 0.0000 23.6013 -44.8915 -7.1115 20.2724 0.0000 0.0000
 16.9717 37.0915 -22.5919 163.5169 23.7007 160.1679 -20.0898 17.4006 19.8322 3.5347 -1.8422 10.8561 -29.0286 4.1707 14.6250 -6.2041 14.1872 -8.9721 -4.5830 0.0000 -5.5275 -0.0413 4.3472 0.5445 33.1476 -0.0000 26.2537 7.7538 -8.9676 2.2290 -45.5459 -4.1520 24.5448 37.8438 0.0000 30.4514 -0.3100 -11.8958 -1.5035 32.8623 0.0000 -24.3270 -17.3462 20.0439 14.6390 -4.7217 0.0000 0.0000 -21.3382 30.4483 9.1604 20.2758 0.0000 -0.0000 -33.4128 -15.9173 -31.0364 100.2426 -0.0000 -0.0000 23.3776 -45.0744 -7.0607 20.7710 0.0000 0.0000
 16.9991 37.0912 -22.6021 163.1661 23.9055 160.3105 -20.4143 17.5531 19.6762 3.5102 -1.8712 10.9486 -28.9009 4.2125 14.6962 -6.2789 14.2447 -8.9116 -4.5365 0.0000 -5.5368 -0.0422 4.3719 0.5533 33.1476 -0.0000 26.2537 7.8715 -9.0310 2.3129 -45.7426 -4.1366 24.6043 37.6779 0.0000 30.5323 -0.3232 -12.0379 -1.5492 32.8623 0.0000 -24.3270 -17.6339 20.0282 14.6762 -4.7882 0.0000 -0.0000 -21.3691 30.5353 9.2673 20.2398 -0.0000 -0.0000 -32.2835 -15.8706 -30.5456 100.1446 -0.0000 0.0000 23.2170 -45.2860 -7.0355 21.1518 -0.0000 -0.0000
 17.0294 37.0919 -22.6113 162.8065 24.0755 160.3999 -20.7296 17.6992 19.5508 3.3959 -1.9777 11.1000 -28.9892 4.1168 14.8225 -6.1718 14.4709 -8.8830 -4.6412 0.0000 -5.5700 -0.0425 4.3624 0.5593 33.1476 -0.0000 26.2537 7.7426 -9.0107 2.3610 -45.7682 -4.3323 24.5274 37.4795 0.0000 30.6810 -0.3332 -11.7668 -1.6336 32.8623 0.0000 -24.3270 -17.9117 19.8814 14.7630 -4.8626 -0.0000 -0.0000 -21.4228 30.6671 9.4306 19.9941 0.0000 -0.0000 -31.1577 -15.9053 -30.0063 100.0755 -0.0000 -0.0000 23.3320 -45.2451 -7.3917 20.6124 -0.0000 0.0000
 17.0596 37.0943 -22.6174 162.4347 24.2595 160.5153 -21.0452 17.8312 19.4266 3.3005 -2.0628 11.1809 -29.0337 4.0704 14.9328 -6.1541 14.6731 -8.8517 -4.7154 0.0000 -5.5478 -0.0439 4.4002 0.5722 33.1476 -0.0000 26.2537 7.8133 -9.0683 2.4842 -45.7752 -4.2450 24.4646 37.3936 0.0000 30.4774 -0.3368 -11.8602 -1.6382 32.8623 0.0000 -24.3270 -18.1924 19.6707 14.8380 -4.9048 -0.0000 -0.0000 -21.4944 30.8479 9.6031 20.1363 0.0000 -0.0000 -30.0953 -15.9267 -29.4898 99.9906 0.0000 -0.0000 23.4143 -45.4584 -7.4085 20.4872 -0.0000 0.0000
 17.0897 37.0971 -22.6243 162.0729 24.4367 160.6424 -21.3411 17.9927 19.2847 3.1664 -2.1083 11.2782 -28.9994 4.1171 14.9868 -6.1884 14.7103 -8.7892 -4.6936 0.0000 -5.6519 -0.0580 4.4693 0.7437 33.1476 -0.0000 26.2537 7.8119 -9.1427 2.5820 -45.7241 -4.2465 24.4316 37.4102 0.0000 30.2693 -0.3698 -11.9399 -1.7870 32.8623 0.0000 -24.3270 -18.4683 19.4870 14.9070 -4.9304 0.0000 0.0000 -21.5333 30.9835 9.7114 20.0622 -0.0000 0.0000 -29.0413 -15.9251 -28.9867 99.9028 -0.0000 0.0000 23.5483 -45.7500 -7.0659 20.8288 -0.0000 0.0000
 17.1189 37.1010 -22.6259 161.6986 24.6133 160.7775 -21.6164 18.1481 19.1372 3.0042 -2.1934 11.3810 -29.0120 4.1110 15.0819 -6.2049 14.8894 -8.7752 -4.7922 0.0000 -5.5495 -0.0418 4.3879 0.5459 33.1476 -0.0000 26.2537 7.7823 -9.1693 2.6682 -45.7813 -4.3362 24.3437 37.3305 0.0000 30.3874 -0.3453 -11.9038 -1.6734 32.8623 0.0000 -24.3270 -18.7818 19.2912 14.9769 -4.9340 -0.0000 0.0000 -21.5883 31.1876 9.8156 19.9982 -0.0000 -0.0000 -28.0376 -15.9394 -28.4860 99.8597 -0.0000 -0.0000 23.7522 -45.8594 -6.9147 20.8631 -0.0000 -0.0000
 17.1502 37.1066 -22.6288 161.3308 24.7787 160.8879 -21.9034 18.2974 19.0155 2.8465 -2.2508 11.4694 -28.9952 4.0892 15.1848 -6.2113 15.0729 -8.7951 -4.8643 0.0000 -5.6757 -0.0491 4.3721 0.6440 33.1476 -0.0000 26.2537 7.8198 -9.1964 2.7306 -45.8576 -4.4905 24.3098 37.3562 0.0000 30.4051 -0.3655 -11.9292 -1.7675 32.8623 0.0000 -24.3270 -19.0811 19.0452 15.0764 -4.9277 0.0000 -0.0000 -21.6530 31.3924 9.9228 19.9711 0.0000 0.0000 -27.0218 -15.9813 -27.9623 99.8222 -0.0000 0.0000 23.9203 -45.9615 -6.6599 21.1426 0.0000 -0.0000
 17.1821 37.1140 -22.6301 161.0022 24.9321 160.9659 -22.1310 18.4343 18.9261 2.6743 -2.3373 11.5536 -29.0013 4.0513 15.2584 -6.1715 15.3085 -8.8028 -4.9582 0.0000 -5.7139 -0.0557 4.4315 0.7207 33.1476 -0.0000 26.2537 7.8121 -9.2334 2.7744 -45.9339 -4.6269 24.2869 37.3796 0.0000 30.4382 -0.3682 -11.9172 -1.7826 32.8623 0.0000 -24.3270 -19.4040 18.8899 15.2123 -4.8778 -0.0000 -0.0000 -21.7164 31.4870 10.0016 19.9661 -0.0000 0.0000 -25.9784 -16.0318 -27.4180 99.7541 0.0000 -0.0000 24.2670 -46.0063 -6.5891 21.0835 -0.0000 0.0000
 17.2142 37.1216 -22.6351 160.6759 25.0840 161.0667 -22.3717 18.6066 18.8095 2.5157 -2.3896 11.6529 -28.9701 4.0286 15.3525 -6.2377 15.4940 -8.8488 -5.0125 0.0000 -5.7433 -0.0628 4.4144 0.8161 33.1476 -0.0000 26.2537 7.8118 -9.3082 2.8402 -45.9630 -4.7101 24.2819 37.3452 0.0000 30.4018 -0.4138 -12.0459 -1.9822 32.8623 0.0000 -24.3270 -19.6296 18.6541 15.3005 -4.9179 0.0000 -0.0000 -21.7260 31.6801 10.0750 19.9351 -0.0000 0.0000 -24.9471 -16.0657 -26.9023 99.7046 0.0000 0.0000 24.6296 -45.9827 -6.3276 21.1099 -0.0000 -0.0000
 17.2426 37.1289 -22.6387 160.3344 25.2110 161.1857 -22.5957 18.7403 18.6810 2.3358 -2.4188 11.7426 -28.9125 4.0434 15.4508 -6.1998 15.6535 -8.9348 -5.0943 0.0000 -5.8113 -0.0610 4.4731 0.7822 33.1476 -0.0000 26.2537 7.8461 -9.3447 2.8887 -45.9800 -4.8448 24.2388 37.3737 0.0000 30.3086 -0.4493 -12.0735 -2.1473 32.8623 0.0000 -24.3270 -19.9171 18.4841 15.3740 -4.9013 0.0000 0.0000 -21.7339 31.7993 10.0824 19.8931 -0.0000 -0.0000 -23.9210 -16.0879 -26.3966 99.6742 -0.0000 -0.0000 25.0137 -45.9066 -6.1193 20.8600 -0.0000 -0.0000
 17.2712 37.1367 -22.6434 159.9996 25.3185 161.2862 -22.8273 18.8653 18.5794 2.2057 -2.5256 11.8218 -28.8658 3.9981 15.5213 -6.1011 15.8646 -9.0055 -5.1321 0.0000 -6.0008 -0.0754 4.5291 0.9554 33.1476 -0.0000 26.2537 7.8558 -9.3589 2.9162 -46.0972 -5.0567 24.1893 37.4069 0.0000 30.5483 -0.4103 -12.1676 -1.9461 32.8623 0.0000 -24.3270 -20.2113 18.2999 15.4603 -4.8592 0.0000 -0.0000 -21.7570 31.8852 10.1099 19.8362 -0.0000 -0.0000 -22.8752 -16.1158 -25.8702 99.6302 0.0000 0.0000 25.3248 -45.8748 -5.8687 21.0082 0.0000 -0.0000
 17.2979 37.1421 -22.6512 159.6959 25.4044 161.3762 -23.0450 18.9504 18.5135 2.1455 -2.5358 11.8333 -28.7451 4.0247 15.5485 -6.1204 15.9827 -9.0423 -5.0654 0.0000 -6.0428 -0.0642 4.4035 0.8358 33.1476 -0.0000 26.2537 7.9996 -9.4229 2.9410 -46.2067 -5.1140 24.1954 37.3703 0.0000 30.5488 -0.4516 -12.2420 -2.1288 32.8623 0.0000 -24.3270 -20.4580 18.1116 15.5287 -4.8335 0.0000 -0.0000 -21.7883 31.9724 10.1631 19.7242 -0.0000 -0.0000 -21.7939 -16.1304 -25.3679 99.5930 0.0000 0.0000 25.5802 -45.7676 -5.6913 21.1285 -0.0000 0.0000
 17.3246 37.1453 -22.6555 159.3466 25.4922 161.5116 -23.2842 19.0605 18.3820 2.0537 -2.5852 11.9186 -28.7562 3.9687 15.6276 -5.9318 16.1309 -9.1198 -5.0248 0.0000 -6.1703 -0.0544 4.4150 0.7066 33.1476 -0.0000 26.2537 7.9365 -9.4533 2.9560 -46.0277 -5.1600 24.1433 37.2785 0.0000 30.3693 -0.5061 -12.3982 -2.3561 32.8623 0.0000 -24.3270 -20.7754 17.9411 15.5773 -4.7482 0.0000 0.0000 -21.8654 32.0191 10.2419 19.6897 0.0000 -0.0000 -20.7830 -16.1499 -24.9129 99.6143 0.0000 -0.0000 25.6395 -45.6126 -5.9853 21.2594 0.0000 0.0000
 17.3490 37.1473 -22.6595 158.9649 25.5687 161.6512 -23.5761 19.1256 18.2792 2.0307 -2.6196 11.9521 -28.7050 3.9406 15.6918 -5.8223 16.2619 -9.1639 -4.9535 0.0000 -6.3327 -0.0418 4.3178 0.5558 33.1476 -0.0000 26.2537 7.9131 -9.4700 2.9254 -45.9217 -5.2701 24.1089 37.1749 0.0000 30.3372 -0.5264 -12.3027 -2.4689 32.8623 0.0000 -24.3270 -21.1098 17.7336 15.6089 -4.6963 0.0000 0.0000 -21.9806 32.2002 10.3100 19.6575 0.0000 -0.0000 -19.8211 -16.1971 -24.4821 99.6231 0.0000 -0.0000 25.6823 -45.6422 -5.9221 21.0519 0.0000 0.0000
